<svg version="1.1" id="Yin-Yang" xmlns="http://www.w3.org/2000/svg" xmlns:xlink="http://www.w3.org/1999/xlink" x="0px" y="0px"
     viewBox="0 0 1024 1024" style="enable-background:new 0 0 1024 1024;" xml:space="preserve">
  <style type="text/css">
    .st0 {
      fill: transparent;
      stroke: #231F20;
      stroke-width: 0.1;
      stroke-miterlimit: 10;
      pointer-events: all; /* Added this line */
    }
  </style>
<path id="LoveCommunity" class="st0" d="M1012.4,611C992.5,711.3,945,800,872.5,872.5c-79.5,79.6-181.3,130.1-291.7,144.9
	c-47.2,6.3-86.3,5.7-120.6-2c-31.8-7.1-66.9-24-93.2-45.1c-40.2-32-70-78.2-82.5-127.8c-5.4-21.4-6.9-34.3-6.9-58
	c-0.1-39.7,7.1-71.3,23.9-106c31.4-64.7,89-110.4,156.2-124.1c36.1-7.3,76.2-7.1,111.8,0.6c19.9,4.3,33.6,9.7,62,24
	c34.6,17.5,52,23.6,80.5,28.6c12.8,2.1,49.4,3,63.1,1.5c27.5-3.2,53.2-10.7,78.4-23c64.3-31.5,109.4-87.6,126.5-157.3
	c9.6-39,8.2-86.9-3.5-123.4c-2.4-7.5-3-10.2-2.1-9.3c0.2,0.2,3.6,8,7.5,17.3C1021.4,406.6,1032.1,511.8,1012.4,611z"/>
<path id="LoveNature" class="st0" d="M960.6,476.5c-14.6,29.8-32.9,53.7-58.1,75.3c-92.7,79.6-231.4,74.7-317.9-11.3
	c-34.7-34.4-58.6-81.7-66-130.5c-0.9-5.8-2.1-21.8-2.6-35.7c-1.3-34.9-4.3-52.9-12.6-78.3c-28.1-84.9-104.5-147.8-193.9-159.5
	c-16.4-2.2-45.8-2.2-61-0.2c-68.8,9.4-129.2,46.9-166.7,103.4c-6.1,9.3-9,12.6-4.7,5.5c27.5-45.2,68.4-92.3,110.4-126.7
	C263.3,56.3,351.4,18.2,448,6c30.2-3.9,68.2-5,98.2-2.9C705.8,14.1,849.9,98,937.6,231c31.2,47.3,42.8,79.2,46.5,127.3
	C987.2,397.9,979,438.6,960.6,476.5z"/>
<path id="LoveYourself" class="st0" d="M324.6,637c-55.5,73.6-64.9,170.7-24.6,252.5c19.5,39.7,46.6,70.5,83.5,95
	c24.3,16.2,58.3,30.1,84.3,34.5c11.7,1.9,7.7,2.2-7.9,0.5c-72.5-7.9-138.5-29-199-63.4c-104.6-59.7-184.4-153-226.5-264.8
	C-17.8,552.7-6.5,395.2,64.9,266.5c5.5-9.9,9.4-16,10.4-16c0.8,0,3.8-3.4,6.5-7.5c12.5-19.1,31.4-40.1,48.5-53.9
	c46.7-37.8,106.9-56.7,165.3-52.1c37.6,3,71.2,13.5,102.2,31.8c54.2,32.1,93.3,84.1,108.7,144.6c5.3,21.1,6.9,34.2,6.9,58.1
	s-1.5,36.7-6.9,58.1c-8.4,32.9-23.5,63-45.2,89.9c-16.6,20.6-41.9,42.4-62.3,53.7C369.6,589.4,343.8,611.6,324.6,637z"/>
</svg>
